<?xml version="1.0" encoding="UTF-8"?>
<svg id="Layer_1" data-name="Layer 1" xmlns="http://www.w3.org/2000/svg" viewBox="0 0 846 481.09">
  <defs>
    <style>
      .cls-1 {
        fill: #3686e1;
      }

      .cls-2 {
        fill: #fbfffc;
        font-family: Arial-Black, Arial;
        font-size: 77.84px;
        font-weight: 800;
      }
    </style>
  </defs>
  <path class="cls-1" d="M743.73,229.09c-4.48-10.72-18.52-40.39-51.96-60.96-28.74-17.68-56.56-19.25-68.52-19.22-8.34-10.18-35.7-40.95-83.25-51.96-54.85-12.7-98.1,9.81-108.41,15.55-8.42-7.62-48.14-41.9-108.41-40.5-55.71,1.28-92.02,32.2-101.18,40.5h-25.36v23.31l-23.19-.27v18.27l-24.81.28v18.54l-22.1-.27v24l-23.45-.27v19.09l-24.27-.55v21l23.45.82s1.91,26.73.27,26.73h-23.72v26.18l23.04.27h.14l.27-23.45,24.55-.82-.28,25.36-22.63.28-.04,1.5-.51,20.04,22.09-.27-.27-18.27,2.73-.55s29.04,87,136.57,77.18c2.2-.2,87.13,136.23,239.31,14.73,0,0,70.57,16.64,125.12-27,4.03-.01,68.98-1.29,100.89-54.34,19.14-31.82,15.57-64.28,13.93-74.93ZM150.75,242.59h-24.75v-24.75h24.75v24.75ZM173.66,201.68h-24.75v-24.75h24.75v24.75ZM220.7,183.06h-24.75v-24.75h24.75v24.75Z"/>
  <rect class="cls-1" x="173.66" y="87.82" width="22.3" height="22.3"/>
  <rect class="cls-1" x="150.14" y="110.11" width="22.3" height="22.3"/>
  <rect class="cls-1" x="78.82" y="170.69" width="24.27" height="25.4"/>
  <polygon class="cls-1" points="129.27 264.37 129.27 292.5 103.87 292.5 103.91 291 126.54 290.72 126.82 265.36 102.27 266.18 102 289.63 101.86 289.63 101.86 264.37 129.27 264.37"/>
  <rect class="cls-1" x="101.86" y="146.73" width="23.97" height="23.97"/>
  <rect class="cls-1" x="55.09" y="237.82" width="22.36" height="24.55"/>
  <text class="cls-2" transform="translate(173.66 262.36) scale(.75 1)"><tspan x="0" y="0">MARMIDON.COM</tspan></text>
</svg>